<?xml version="1.0" encoding="UTF-8"?>
<svg id="b" data-name="Layer 2" xmlns="http://www.w3.org/2000/svg" viewBox="0 0 666.4 670.97">
  <g id="c" data-name="Layer 1">
    <path d="M666.4,335.48c0,5.93-.15,11.8-.48,17.66-.59,11.94-1.81,23.73-3.66,35.31-1.89,12.01-4.4,23.8-7.51,35.31-3.26,12.08-7.14,23.84-11.66,35.31-4.07,10.35-8.66,20.45-13.69,30.26-.89,1.7-1.74,3.39-2.66,5.05-6.51,12.25-13.81,24.01-21.76,35.31-4.03,5.69-8.22,11.23-12.58,16.63-5.14,6.43-10.55,12.68-16.17,18.68-6.63,7.13-13.58,13.98-20.84,20.52-5.7,5.16-11.58,10.1-17.62,14.8-6.29,4.94-12.77,9.68-19.39,14.13-11.58,7.8-23.65,14.9-36.2,21.19h-.81v.42c-11.96,6-24.32,11.27-37.01,15.79-12.03,4.31-24.39,7.91-37.01,10.77-12.1,2.79-24.43,4.87-37.01,6.25-12.14,1.38-24.5,2.08-37.01,2.08s-24.87-.71-37.01-2.08c-12.58-1.38-24.91-3.46-37.01-6.25-12.62-2.86-24.98-6.46-37.01-10.77-12.7-4.52-25.06-9.78-37.01-15.79-.3-.11-.56-.25-.81-.42-12.55-6.29-24.61-13.38-36.2-21.19v-278.98c.02-18.06,3.34-36.24,9.73-52.97,4.77-12.5,11.18-24.37,18.99-35.31,2.59-3.67,5.37-7.24,8.29-10.7,7.59-8.97,16.14-17.23,25.54-24.61,3.7-2.93,7.51-5.69,11.47-8.33,11.4-7.63,23.8-14.13,37.01-19.25,7.85-3.07,15.99-5.65,24.39-7.73,4.15-1.02,8.36-1.94,12.62-2.68,11.96-2.19,24.35-3.32,37.01-3.32s25.06,1.13,37.01,3.32c4.26.74,8.48,1.66,12.62,2.68,8.4,2.08,16.54,4.66,24.39,7.73,13.21,5.16,25.65,11.62,37.01,19.25,3.96,2.65,7.77,5.4,11.44,8.33,9.44,7.42,18.03,15.68,25.58,24.68,2.92,3.43,5.66,6.99,8.25,10.63,7.85,10.95,14.25,22.81,18.99,35.31,4.29,11.27,7.25,23.1,8.7,35.31.7,5.79,1.07,11.69,1.07,17.66s-.37,11.87-1.07,17.66c-1.44,12.22-4.4,24.05-8.7,35.31-4.74,12.5-11.14,24.37-18.99,35.31-2.59,3.64-5.33,7.2-8.25,10.63-7.55,9.01-16.14,17.27-25.58,24.68-3.66,2.93-7.48,5.69-11.44,8.33-11.36,7.63-23.8,14.09-37.01,19.25-7.85,3.07-15.99,5.65-24.39,7.73-4.15,1.02-8.36,1.94-12.62,2.68-11.96,2.19-24.35,3.32-37.01,3.32s-25.06-1.13-37.01-3.32v-73.31h37.01c12.99,0,25.46-1.77,37.01-5.05,13.81-3.85,26.35-9.85,37.01-17.45,5.48-3.88,10.44-8.16,14.81-12.82,9.7-10.28,16.66-22.28,19.99-35.31,1.44-5.72,2.22-11.62,2.22-17.66s-.78-11.94-2.22-17.66c-3.33-13.03-10.29-25.04-19.99-35.31-4.37-4.66-9.33-8.93-14.81-12.82-10.66-7.59-23.21-13.6-37.01-17.45-11.55-3.28-24.02-5.05-37.01-5.05s-25.46,1.77-37.01,5.05c-13.81,3.85-26.35,9.85-37.01,17.45-5.48,3.88-10.44,8.16-14.81,12.82-9.7,10.28-16.66,22.28-19.99,35.31-1.44,5.72-2.22,11.62-2.22,17.66v239.36c11.88,5.76,24.24,10.63,37.01,14.51,11.99,3.67,24.35,6.46,37.01,8.3,12.1,1.77,24.43,2.68,37.01,2.68s24.91-.92,37.01-2.68c12.66-1.84,25.02-4.63,37.01-8.3,12.77-3.88,25.13-8.76,37.01-14.51,6.26-3.04,12.36-6.32,18.28-9.82,6.44-3.78,12.7-7.87,18.73-12.18,9.88-7.03,19.25-14.76,28.06-23.13,3.07-2.86,6.03-5.83,8.96-8.9,7.96-8.26,15.4-17.09,22.24-26.41,5.26-7.2,10.22-14.69,14.77-22.42,2.52-4.2,4.89-8.51,7.11-12.89,5.88-11.3,10.96-23.1,15.14-35.31,4-11.41,7.18-23.2,9.59-35.31,2.29-11.51,3.85-23.31,4.59-35.31.41-5.83.59-11.72.59-17.66s-.19-11.83-.59-17.66c-.74-12.01-2.29-23.8-4.59-35.31-2.41-12.11-5.59-23.91-9.59-35.31-4.18-12.22-9.25-24.01-15.14-35.31-2.22-4.38-4.59-8.69-7.11-12.89-4.55-7.73-9.51-15.22-14.77-22.42-6.85-9.32-14.29-18.15-22.24-26.41-2.92-3.07-5.88-6.04-8.96-8.9-8.81-8.37-18.17-16.1-28.06-23.13-6.03-4.31-12.29-8.4-18.73-12.18-5.92-3.5-12.03-6.78-18.28-9.78-11.88-5.79-24.24-10.66-37.01-14.55-11.99-3.67-24.35-6.46-37.01-8.3-12.1-1.77-24.43-2.68-37.01-2.68s-24.91.92-37.01,2.68c-12.66,1.84-25.02,4.63-37.01,8.3-12.77,3.88-25.13,8.76-37.01,14.55-6.26,3-12.36,6.29-18.28,9.78-6.44,3.78-12.7,7.87-18.73,12.18-9.88,7.03-19.25,14.76-28.06,23.13-3.07,2.86-6.03,5.83-8.96,8.9-7.96,8.26-15.4,17.09-22.24,26.41-38.01,50.98-54.45,114.28-51.78,176.57H.65c-4.14-58.02,11.86-126.76,39.2-176.57,6.58-12.22,13.81-24.01,21.76-35.31,4.03-5.69,8.22-11.23,12.58-16.63,5.14-6.43,10.55-12.68,16.17-18.68,6.63-7.13,13.58-13.98,20.84-20.52,5.7-5.16,11.59-10.1,17.62-14.8,6.29-4.94,12.77-9.68,19.39-14.13,11.59-7.8,23.65-14.9,36.2-21.19.26-.18.52-.32.81-.42,11.96-6,24.32-11.27,37.01-15.79,12.03-4.31,24.39-7.91,37.01-10.77,12.1-2.79,24.43-4.87,37.01-6.25,12.14-1.38,24.5-2.08,37.01-2.08s24.87.71,37.01,2.08c12.58,1.38,24.91,3.46,37.01,6.25,12.62,2.86,24.98,6.46,37.01,10.77,12.7,4.52,25.06,9.78,37.01,15.79.3.11.56.25.81.42,12.55,6.29,24.61,13.38,36.2,21.19,6.63,4.45,13.1,9.18,19.39,14.13,6.03,4.7,11.92,9.64,17.62,14.8,7.25,6.53,14.21,13.38,20.84,20.52,5.63,6,11.03,12.25,16.17,18.68,4.37,5.4,8.55,10.95,12.58,16.63,7.96,11.3,15.25,23.06,21.76,35.31.93,1.66,1.78,3.35,2.66,5.05,5.03,9.82,9.62,19.92,13.69,30.26,4.52,11.48,8.4,23.24,11.66,35.31,3.11,11.51,5.63,23.31,7.51,35.31,1.85,11.58,3.07,23.38,3.66,35.31.33,5.86.48,11.72.48,17.66Z" style="fill: #fff; stroke-width: 0px;"/>
  </g>
</svg>